HIERARCHY
ROOT root
{
	OFFSET	0	13.1	24.9
	CHANNELS 6  Xposition Yposition Zposition Xrotation Yrotation Zrotation
	JOINT spine_1
	{
		OFFSET	0	9.99999	0
		CHANNELS 3  Xrotation Yrotation Zrotation
		JOINT spine_2
		{
			OFFSET	0	112	-10
			CHANNELS 3  Xrotation Yrotation Zrotation
			JOINT spine_3
			{
				OFFSET	0	206.5	19.3
				CHANNELS 3  Xrotation Yrotation Zrotation
				JOINT spine_4
				{
					OFFSET	0	110.4	14.6
					CHANNELS 3  Xrotation Yrotation Zrotation
					JOINT neck_1
					{
						OFFSET	0	71.8	-50.3
						CHANNELS 3  Xrotation Yrotation Zrotation
						JOINT neck_2
						{
							OFFSET	0	86.2	-25.8
							CHANNELS 3  Xrotation Yrotation Zrotation
							JOINT head_ee
							{
								OFFSET	0	179.8	-8.7
								CHANNELS 3  Xrotation Yrotation Zrotation
								End Site
								{
									OFFSET	1	0	0
								}
							}
						}
					}
					JOINT left_clavicle
					{
						OFFSET	-43.2	22.4	-70.8
						CHANNELS 3  Xrotation Yrotation Zrotation
						JOINT left_shoulder
						{
							OFFSET	-93.9	-5.79999	48.7
							CHANNELS 3  Xrotation Yrotation Zrotation
							JOINT left_elbow
							{
								OFFSET	-291.4	-30.8	15.2
								CHANNELS 3  Xrotation Yrotation Zrotation
								JOINT left_lowarm_twist
								{
									OFFSET	-110.7	-3.89999	13.6
									CHANNELS 3  Xrotation Yrotation Zrotation
									JOINT left_hand
									{
										OFFSET	-110.7	-3.89999	13.6
										CHANNELS 3  Xrotation Yrotation Zrotation
										JOINT left_ee
										{
											OFFSET	-80.8	-5.10001	12.1
											CHANNELS 3  Xrotation Yrotation Zrotation
											End Site
											{
												OFFSET	1	0	0
											}
										}
									}
								}
							}
						}
					}
					JOINT right_clavicle
					{
						OFFSET	43.2	22.4	-70.8
						CHANNELS 3  Xrotation Yrotation Zrotation
						JOINT right_shoulder
						{
							OFFSET	93.9	-5.79999	48.7
							CHANNELS 3  Xrotation Yrotation Zrotation
							JOINT right_elbow
							{
								OFFSET	291.4	-30.8	15.2
								CHANNELS 3  Xrotation Yrotation Zrotation
								JOINT right_lowarm_twist
								{
									OFFSET	110.7	-3.89999	13.6
									CHANNELS 3  Xrotation Yrotation Zrotation
									JOINT right_hand
									{
										OFFSET	110.7	-3.89999	13.6
										CHANNELS 3  Xrotation Yrotation Zrotation
										JOINT right_ee
										{
											OFFSET	80.8	-5.10001	12.1
											CHANNELS 3  Xrotation Yrotation Zrotation
											End Site
											{
												OFFSET	1	0	0
											}
										}
									}
								}
							}
						}
					}
				}
			}
		}
	}
	JOINT left_hip
	{
		OFFSET	-82.8	-127.5	0.300001
		CHANNELS 3  Xrotation Yrotation Zrotation
		JOINT left_knee
		{
			OFFSET	-28.2	-396.7	2.2
			CHANNELS 3  Xrotation Yrotation Zrotation
			JOINT left_ankle
			{
				OFFSET	-11.7	-411.3	35.4
				CHANNELS 3  Xrotation Yrotation Zrotation
				JOINT left_toes
				{
					OFFSET	0	-60	-88.6
					CHANNELS 3  Xrotation Yrotation Zrotation
					JOINT left_foot_ee
					{
						OFFSET	-22.5	-16.5	-42.2
						CHANNELS 3  Xrotation Yrotation Zrotation
						End Site
						{
							OFFSET	1	0	0
						}
					}
				}
			}
		}
	}
	JOINT right_hip
	{
		OFFSET	82.8	-127.5	0.300001
		CHANNELS 3  Xrotation Yrotation Zrotation
		JOINT right_knee
		{
			OFFSET	28.2	-396.7	2.2
			CHANNELS 3  Xrotation Yrotation Zrotation
			JOINT right_ankle
			{
				OFFSET	11.7	-411.3	35.4
				CHANNELS 3  Xrotation Yrotation Zrotation
				JOINT right_toes
				{
					OFFSET	0	-60	-88.6
					CHANNELS 3  Xrotation Yrotation Zrotation
					JOINT right_foot_ee
					{
						OFFSET	22.5	-16.5	-42.2
						CHANNELS 3  Xrotation Yrotation Zrotation
						End Site
						{
							OFFSET	1	0	0
						}
					}
				}
			}
		}
	}
}
MOTION
Frames: 5
Frame Time: 0.02
878.531586192 623.878 -1854.02840575 -14.6433458512 8.74585737346 2.27471158778 6.734 0.47994 1.26812 6.7348 0.398281 1.29608 6.74264 0.274857 1.32774 6.7405 0.481083 1.26768 -21.0504 1.90773 4.91035 -20.9843 1.27582 5.38305 -0.0 0.0 -0.0 0.828064 15.9586 3.18015 1.07407 -24.0102 59.3314 1.87662 -42.9069 0.737514 -34.115 -2.34814 3.60676 4.15931 29.1776 36.6566 -0.0 0.0 -0.0 7.85713 22.1558 -14.4768 -24.0163 15.2031 -82.9958 0.317161 8.92906 -0.0247637 -82.6118 8.15214 -5.23696 -9.41325 -30.672 42.438 0.0 0.0 0.0 31.3856 -15.2284 2.89974 -15.1196 0.321835 2.29124 42.3958 26.2736 -5.43768 -4.78051 0.0 0.0 -0.0 0.0 -0.0 44.5204 26.6864 -9.92799 -52.227 1.42161 -7.61556 29.4845 18.542 4.21731 -11.0859 0.0 0.0 0.0 0.0 0.0 
877.243082316 623.878 -1852.79626454 -14.6605544695 9.16356450963 2.38526789493 6.734 0.47994 1.26812 6.7348 0.398281 1.29608 6.74264 0.274857 1.32774 6.7405 0.481083 1.26768 -21.0504 1.90773 4.91035 -20.9843 1.27582 5.38305 -0.0 0.0 -0.0 0.828064 15.9586 3.18015 1.07407 -24.0102 59.3314 1.87662 -42.9069 0.737514 -34.115 -2.34814 3.60676 4.15931 29.1776 36.6566 -0.0 0.0 -0.0 7.85713 22.1558 -14.4768 -24.0163 15.2031 -82.9958 0.317161 8.92906 -0.0247637 -82.6118 8.15214 -5.23696 -9.41325 -30.672 42.438 0.0 0.0 0.0 31.3856 -15.2284 2.89974 -15.1196 0.321835 2.29124 42.3958 26.2736 -5.43768 -4.78051 0.0 0.0 -0.0 0.0 -0.0 44.5204 26.6864 -9.92799 -52.227 1.42161 -7.61556 29.4845 18.542 4.21731 -11.0859 0.0 0.0 0.0 0.0 0.0 
866.554297407 620.859 -1845.0648607 -14.6789978824 8.05868302583 0.817709539825 6.4287 0.541904 1.56408 6.42996 0.441292 1.59539 6.44056 0.281017 1.63126 6.43725 0.535086 1.56643 -21.8027 2.11541 5.17044 -21.7308 1.6187 5.73895 -0.0 0.0 -0.0 1.05649 12.5387 3.23711 0.759286 -21.6727 57.6512 1.79172 -41.5872 0.680429 -31.7503 -2.11954 3.40745 4.08896 28.6236 36.1103 -0.0 0.0 -0.0 8.35118 24.6306 -15.338 -24.6094 13.8427 -83.6155 0.365712 10.2687 -0.03286 -82.0044 8.07553 -5.24827 -9.38976 -30.7352 42.16 0.0 0.0 0.0 31.5986 -14.4812 1.61379 -15.1961 0.321916 2.30297 41.9096 26.7294 -5.40967 -4.58652 0.0 0.0 -0.0 0.0 -0.0 46.7718 25.1869 -9.42205 -53.8309 1.57193 -7.81171 29.2434 21.3923 4.29256 -11.257 0.0 0.0 0.0 0.0 0.0 
866.079855343 620.859 -1844.55333188 -14.6850661909 8.22061442996 0.860568929095 6.4287 0.541904 1.56408 6.42996 0.441292 1.59539 6.44056 0.281017 1.63126 6.43725 0.535086 1.56643 -21.8027 2.11541 5.17044 -21.7308 1.6187 5.73895 -0.0 0.0 -0.0 1.05649 12.5387 3.23711 0.759286 -21.6727 57.6512 1.79172 -41.5872 0.680429 -31.7503 -2.11954 3.40745 4.08896 28.6236 36.1103 -0.0 0.0 -0.0 8.35118 24.6306 -15.338 -24.6094 13.8427 -83.6155 0.365712 10.2687 -0.03286 -82.0044 8.07553 -5.24827 -9.38976 -30.7352 42.16 0.0 0.0 0.0 31.5986 -14.4812 1.61379 -15.1961 0.321916 2.30297 41.9096 26.7294 -5.40967 -4.58652 0.0 0.0 -0.0 0.0 -0.0 46.7718 25.1869 -9.42205 -53.8309 1.57193 -7.81171 29.2434 21.3923 4.29256 -11.257 0.0 0.0 0.0 0.0 0.0 
861.082458644 624.665 -1839.5005275 -14.6540297373 8.70011917129 2.4570703815 5.82381 0.614012 1.83979 5.82556 0.495718 1.87512 5.83978 0.287398 1.91811 5.83512 0.58667 1.84869 -22.7187 2.36492 5.49019 -22.6398 2.03692 6.18302 -0.0 0.0 -0.0 1.30424 11.1393 3.53002 1.21641 -18.7128 52.9711 1.7009 -40.1133 0.621022 -29.6628 -1.92475 3.22383 4.04004 27.8644 35.6892 -0.0 0.0 -0.0 9.57084 25.2418 -17.9844 -24.0658 11.6795 -83.411 0.436098 12.1905 -0.0465689 -80.9209 7.93855 -5.2664 -9.29445 -30.5084 41.7443 0.0 0.0 0.0 31.4638 -13.4682 0.24861 -19.3536 0.30277 2.94043 39.1071 26.6116 -5.13519 -4.7247 0.0 0.0 -0.0 0.0 -0.0 51.9542 21.541 -11.8167 -51.7564 1.37855 -7.55722 28.9377 24.1169 4.36933 -11.7596 0.0 0.0 0.0 0.0 0.0 
